<svg id="Layer_1" data-name="Layer 1" xmlns="http://www.w3.org/2000/svg" viewBox="0 0 136.22 104.11"><defs><style>.cls-1{fill:#fff;}.cls-2{fill:#010101;}</style></defs><path class="cls-1" d="M308.74,383.14l2.91,2.55.72.65.66.71,1.31,1.42A46.29,46.29,0,0,1,322.43,401a49,49,0,0,1,3.72,14.43,47.2,47.2,0,0,1-6.63,28.74A46.75,46.75,0,0,1,297,463.29l-3.54,1.3-3.65,1a12.89,12.89,0,0,1-1.85.37l-1.86.31c-.62.08-1.24.24-1.87.26l-1.88.12-1.89.13c-.63.05-1.26,0-1.88,0l-1.89-.06a13.34,13.34,0,0,1-1.89-.13l-3.75-.48-3.69-.83-.79-.2-.78-.28-1.55-.55a25.08,25.08,0,0,1-3-1.2l-3-1.41c-1-.51-1.88-1.11-2.82-1.66l-1.41-.85c-.44-.31-.87-.65-1.31-1l-2.62-2-2.4-2.21c-.4-.37-.81-.73-1.19-1.11l-1.09-1.22c-.71-.82-1.46-1.61-2.14-2.45l-1.91-2.64a24.35,24.35,0,0,1-1.72-2.75l-.82-1.4-.41-.7-.33-.74L236.68,438c-.44-1-.73-2-1.1-3.05l-.53-1.53c-.14-.52-.25-1.05-.38-1.57-.25-1.05-.53-2.09-.73-3.15a51,51,0,0,1-1-12.88c.08-1.08.23-2.15.35-3.23.06-.54.1-1.08.19-1.62l.34-1.59c.25-1.05.4-2.14.72-3.18l1-3.11.15-.26c.11-.16.22-.42.45-.72l1.75-2.54c.66-1.09,1.68-2.23,2.66-3.53s2.24-2.56,3.39-3.94a26.83,26.83,0,0,1,1.89-2c.64-.65,1.28-1.31,1.89-2s1.34-1.22,2-1.84,1.2-1.29,1.86-1.83,1.22-1.15,1.77-1.74c.27-.3.54-.6.79-.9l.78-.81a12.94,12.94,0,0,0,2.27-3.4,10.46,10.46,0,0,1,3.58-3.52c.93-.54,2-1.07,3.17-1.61l.91-.39,1-.32,2.05-.6a26.93,26.93,0,0,1,4.48-.86,21,21,0,0,1,2.39-.26l2.47-.05a32.48,32.48,0,0,1,5,.3,37.5,37.5,0,0,1,5,.91,42.63,42.63,0,0,1,8.91,3.32l1,.47.93.56,1.76,1.08c.56.36,1.12.66,1.62,1l1.42,1.1c.89.72,1.73,1.31,2.39,2l1.68,1.65,1.42,1.42a45.15,45.15,0,0,0-18.52-7.37c-.46-.06-1.08-.17-1.85-.31s-1.71-.18-2.76-.3l-1.66-.18c-.59-.05-1.21,0-1.85,0a31.89,31.89,0,0,0-4.11.08,45.82,45.82,0,0,0-18.83,5.4l-2.18,1.33a17.56,17.56,0,0,0-2.09,1.38,38.47,38.47,0,0,0-3.76,3,31.41,31.41,0,0,0-3.17,3.14l-1.37,1.54c-.22.25-.44.48-.64.73l-.55.77-1.95,2.69c-.51.85-.92,1.6-1.28,2.2l-.82,1.41a2.53,2.53,0,0,0-.26.51,43.64,43.64,0,0,0-5,16.82,44.57,44.57,0,0,0,10.84,33.15,45,45,0,0,0,61.08,6,46.93,46.93,0,0,0,11.15-12.14,45.73,45.73,0,0,0,6.48-32,46.44,46.44,0,0,0-5.58-15.71A47.11,47.11,0,0,0,308.74,383.14Z" transform="translate(-232.86 -369.97)"/><path class="cls-2" d="M258.54,443.64" transform="translate(-232.86 -369.97)"/><path class="cls-2" d="M315.65,443.55" transform="translate(-232.86 -369.97)"/><path class="cls-2" d="M298.7,460.66" transform="translate(-232.86 -369.97)"/><path class="cls-2" d="M298.7,460.05" transform="translate(-232.86 -369.97)"/><path class="cls-1" d="M253.23,419.64l5.59-21.87,6.39,23.6h0l2.71,10,.49,1.77a19.28,19.28,0,0,1,.79,4.65,6,6,0,0,1-1.76,4.56,6.43,6.43,0,0,1-3.5,1.27h18.57a11,11,0,0,1-2.63-.7,4.68,4.68,0,0,1-1.55-1.16,10.74,10.74,0,0,1-1.78-3.25q-.82-2.16-2.21-7.18l-12.29-44.38h-1.62l-10.34,39.82q-1.41,5.44-2.27,8.17a28.91,28.91,0,0,1-1.77,4.45,10,10,0,0,1-2.21,3.13,4.53,4.53,0,0,1-2.62,1.1h12.66a4.59,4.59,0,0,1-2.83-1.35,6.09,6.09,0,0,1-1.26-2.2,8.88,8.88,0,0,1-.46-2.91,29.49,29.49,0,0,1,1.27-7.31l.71-2.62,1.47-5.83" transform="translate(-232.86 -369.97)"/><polyline class="cls-1" points="20.78 46.42 31.71 46.42 31.28 45.6 21.19 45.6"/><path class="cls-1" d="M292,472.77a3,3,0,0,0,1.06-.88,4,4,0,0,0,.71-1.72,20.2,20.2,0,0,0,.19-3.19V451.46a18.2,18.2,0,0,0-.23-3.39,3.61,3.61,0,0,0-.87-1.77,12.38,12.38,0,0,0-2.41-1.45h9.18c2,0,3.33,0,3.89.08a10.2,10.2,0,0,1,6,2.53,13.83,13.83,0,0,1,3.64,5.46,20.3,20.3,0,0,1,1.3,7.36,20,20,0,0,1-.74,5.49,12.64,12.64,0,0,1-2.06,4.28,8.12,8.12,0,0,1-4.63,3.06,18.51,18.51,0,0,1-4.22.48H290.4S291.57,473,292,472.77Zm5.61-27.27v20.93a20.45,20.45,0,0,0,.18,3.14,4.69,4.69,0,0,0,.69,1.83A3.82,3.82,0,0,0,301.9,473a6.81,6.81,0,0,0,3.51-.85,7.63,7.63,0,0,0,2.61-2.77,15,15,0,0,0,1.73-4.24,21.33,21.33,0,0,0,.59-5.09,21.94,21.94,0,0,0-.72-5.68,15.72,15.72,0,0,0-2.05-4.72,8.85,8.85,0,0,0-4.42-3.7,10.86,10.86,0,0,0-3.57-.49Z" transform="translate(-232.86 -369.97)"/><path class="cls-1" d="M330.61,459.17a19.45,19.45,0,0,1,1.09-6.58,15.21,15.21,0,0,1,3.19-5.28,11.86,11.86,0,0,1,3.37-2.57,7.9,7.9,0,0,1,8.16.53,12.86,12.86,0,0,1,3.82,4,17.56,17.56,0,0,1,2.67,9.6,19.16,19.16,0,0,1-.7,5.21,16.35,16.35,0,0,1-2,4.58,12.54,12.54,0,0,1-3.87,4,8.69,8.69,0,0,1-4.68,1.41,8.57,8.57,0,0,1-4.62-1.37,12.14,12.14,0,0,1-3.79-3.88,15.92,15.92,0,0,1-1.93-4.46A19.88,19.88,0,0,1,330.61,459.17Zm3.67.31a20.52,20.52,0,0,0,2.4,10.32,8.49,8.49,0,0,0,2.28,2.73,5,5,0,0,0,5.59,0,8.24,8.24,0,0,0,2.29-2.74,20.75,20.75,0,0,0,2.4-10.4,30.13,30.13,0,0,0-.66-6.43,18.27,18.27,0,0,0-1.86-5.14,7,7,0,0,0-2.16-2.52,5.39,5.39,0,0,0-5.6,0,7.33,7.33,0,0,0-2.17,2.53,17.79,17.79,0,0,0-1.85,5.13A30.72,30.72,0,0,0,334.28,459.48Z" transform="translate(-232.86 -369.97)"/><path class="cls-1" d="M310.1,388.28v43.07a51.56,51.56,0,0,1-.29,6.42,9.57,9.57,0,0,1-1.08,3.42,4.87,4.87,0,0,1-1.61,1.78,5.45,5.45,0,0,1-2.37.67H321a5.4,5.4,0,0,1-2.34-.67,4.89,4.89,0,0,1-1.62-1.78,9.36,9.36,0,0,1-1.07-3.44,49.3,49.3,0,0,1-.3-6.4V388.28c3.76,0,6.42.38,8,1.14a8.86,8.86,0,0,1,4.25,4.33,82.83,82.83,0,0,1,2.73,8.81L330.15,387H299.79l.91,1.21" transform="translate(-232.86 -369.97)"/><path class="cls-1" d="M275.91,416.41" transform="translate(-232.86 -369.97)"/><path class="cls-1" d="M277.56,415.42h1.1a15.86,15.86,0,0,0,5.12-.59,6.71,6.71,0,0,0,2.89-2.46,17.54,17.54,0,0,0,3-10.49,21.66,21.66,0,0,0-.88-6.28,13.89,13.89,0,0,0-2.44-4.85,6.36,6.36,0,0,0-2.88-2,15.39,15.39,0,0,0-4.75-.57h-4.62a3.51,3.51,0,0,1-.55,0c0-.43,0-.86,0-1.28h5.55c2.33,0,3.85,0,4.58,0a16.11,16.11,0,0,1,7,1.78,11.12,11.12,0,0,1,4.42,5.06,18.19,18.19,0,0,1,1.57,7.8q0,6.6-3.4,10.58a9.77,9.77,0,0,1-2.29,1.95,16.66,16.66,0,0,1-3.36,1.44,8.62,8.62,0,0,1,2.57,2.2,10.38,10.38,0,0,1,1.21,2.22q.54,1.33,1.64,4.72,2.56,7.74,3.88,11.31a39.93,39.93,0,0,0,2.2,5.19,6,6,0,0,0,1.4,1.82,4,4,0,0,0,1.86.67s-10.36-1.56-10.49-2l-2-6.73c-1.21-4-2.43-7.6-3.66-10.71a22.62,22.62,0,0,0-3.37-6.3,4.65,4.65,0,0,0-1.67-1.21,5.91,5.91,0,0,0-2.19-.36h-1.42" transform="translate(-232.86 -369.97)"/><path class="cls-1" d="M274.28,388.16h-2.65l-2-1.3h4.62" transform="translate(-232.86 -369.97)"/><polyline class="cls-1" points="59.03 71.69 59.61 73.68 69.53 73.68"/><path class="cls-1" d="M277.94,416.35h-1.5l-1.11-.93h2.61" transform="translate(-232.86 -369.97)"/><path class="cls-1" d="M317.16,459.31h.63a10.17,10.17,0,0,0,2.95-.3,3.75,3.75,0,0,0,1.67-1.25,8.07,8.07,0,0,0,1.75-5.31,9.72,9.72,0,0,0-.51-3.18,6.85,6.85,0,0,0-1.4-2.45,3.74,3.74,0,0,0-1.66-1,10.22,10.22,0,0,0-2.75-.29h-3c0-.22,0-.44,0-.65H318c1.34,0,2.22,0,2.64,0a10.28,10.28,0,0,1,4,.9,5.89,5.89,0,0,1,2.55,2.56,8.2,8.2,0,0,1,.91,3.95,7.36,7.36,0,0,1-2,5.36,6,6,0,0,1-1.32,1,9.84,9.84,0,0,1-1.94.73,5,5,0,0,1,1.48,1.11,5.21,5.21,0,0,1,.7,1.13c.21.45.52,1.24.95,2.39,1,2.61,1.73,4.52,2.23,5.72a18.76,18.76,0,0,0,1.27,2.63,3,3,0,0,0,.81.92,2.54,2.54,0,0,0,1.07.34s-6-.79-6.05-1l-1.16-3.41q-1-3.06-2.11-5.42a11,11,0,0,0-1.95-3.19,2.64,2.64,0,0,0-1-.61,3.82,3.82,0,0,0-1.26-.18h-.82" transform="translate(-232.86 -369.97)"/><polyline class="cls-1" points="81.82 74.88 82.01 74.88 82.16 75.54 81.82 75.54"/><polyline class="cls-1" points="92.56 102.62 92.9 103.62 98.61 103.62"/><path class="cls-1" d="M315.58,445.51h-1.34l-1-.66h2.33" transform="translate(-232.86 -369.97)"/><path class="cls-1" d="M317.92,459.78h-1.35l-1-.48h2.36" transform="translate(-232.86 -369.97)"/><path class="cls-1" d="M366.52,446.39a5.57,5.57,0,0,0-2.48-1.5,17.65,17.65,0,0,0-4.2-.37H356.7v.72h1.52c1,0,1.61,0,1.89.05a4.33,4.33,0,0,1,2.62,1.4,6.89,6.89,0,0,1,1.47,2.6,11.54,11.54,0,0,1,.51,3.51,8.23,8.23,0,0,1-1.77,5.53,3.93,3.93,0,0,1-1.72,1.25,8.88,8.88,0,0,1-2.75.33H356.7v.75h3.54c1.56,0,2.55,0,3-.07a6.51,6.51,0,0,0,3.28-1.23c1.73-1.33,2.6-3.41,2.6-6.26A9,9,0,0,0,366.52,446.39Z" transform="translate(-232.86 -369.97)"/><path class="cls-1" d="M357.08,445.24h-1.74l-1.29-.72h3" transform="translate(-232.86 -369.97)"/><polyline class="cls-1" points="124.24 89.95 122.39 89.95 123.43 90.69 124.24 90.69"/></svg>